<svg width="36" height="36" viewBox="0 0 36 36" fill="none" xmlns="http://www.w3.org/2000/svg">
<rect width="36" height="36" fill="white"/>
<path d="M4.71973 19.293L3.72949 20.3594V23H1.8252V13.7578H3.72949V17.9473L4.56738 16.7983L6.92236 13.7578H9.26465L5.98291 17.8647L9.35986 23H7.09375L4.71973 19.293ZM11.8926 23H10.0518V16.1318H11.8926V23ZM9.94385 14.3545C9.94385 14.0794 10.0348 13.853 10.2168 13.6753C10.403 13.4976 10.6548 13.4087 10.9722 13.4087C11.2853 13.4087 11.535 13.4976 11.7212 13.6753C11.9074 13.853 12.0005 14.0794 12.0005 14.3545C12.0005 14.6338 11.9053 14.8623 11.7148 15.04C11.5286 15.2178 11.2811 15.3066 10.9722 15.3066C10.6632 15.3066 10.4136 15.2178 10.2231 15.04C10.0369 14.8623 9.94385 14.6338 9.94385 14.3545ZM15.0981 16.1318L15.1553 16.9253C15.6462 16.3117 16.3042 16.0049 17.1294 16.0049C17.8573 16.0049 18.3989 16.2186 18.7544 16.646C19.1099 17.0734 19.2918 17.7124 19.3003 18.563V23H17.4658V18.6074C17.4658 18.2181 17.3812 17.9367 17.2119 17.7632C17.0426 17.5854 16.7612 17.4966 16.3677 17.4966C15.8514 17.4966 15.4642 17.7166 15.2061 18.1567V23H13.3716V16.1318H15.0981ZM20.4111 19.5151C20.4111 18.4445 20.6502 17.5918 21.1284 16.957C21.6108 16.3223 22.2689 16.0049 23.1025 16.0049C23.7712 16.0049 24.3234 16.2546 24.7593 16.7539V13.25H26.6001V23H24.9434L24.8545 22.27C24.3975 22.8413 23.8092 23.127 23.0898 23.127C22.2816 23.127 21.632 22.8096 21.1411 22.1748C20.6545 21.5358 20.4111 20.6493 20.4111 19.5151ZM22.2456 19.6484C22.2456 20.2917 22.3577 20.7847 22.582 21.1274C22.8063 21.4702 23.1322 21.6416 23.5596 21.6416C24.1266 21.6416 24.5265 21.4025 24.7593 20.9243V18.2139C24.5308 17.7357 24.1351 17.4966 23.5723 17.4966C22.6878 17.4966 22.2456 18.2139 22.2456 19.6484ZM32.002 23C31.9173 22.835 31.856 22.6297 31.8179 22.3843C31.3735 22.8794 30.7959 23.127 30.085 23.127C29.4121 23.127 28.8535 22.9323 28.4092 22.543C27.9691 22.1536 27.749 21.6628 27.749 21.0703C27.749 20.3424 28.0177 19.7839 28.5552 19.3945C29.0968 19.0052 29.8776 18.8084 30.8975 18.8042H31.7417V18.4106C31.7417 18.0933 31.6592 17.8394 31.4941 17.6489C31.3333 17.4585 31.0773 17.3633 30.7261 17.3633C30.4172 17.3633 30.1738 17.4373 29.9961 17.5854C29.8226 17.7336 29.7358 17.9367 29.7358 18.1948H27.9014C27.9014 17.797 28.0241 17.4289 28.2695 17.0903C28.515 16.7518 28.862 16.4873 29.3105 16.2969C29.7591 16.1022 30.2627 16.0049 30.8213 16.0049C31.6676 16.0049 32.3384 16.2186 32.8335 16.646C33.3328 17.0692 33.5825 17.6659 33.5825 18.436V21.4131C33.5868 22.0648 33.6777 22.5578 33.8555 22.8921V23H32.002ZM30.4849 21.7241C30.7557 21.7241 31.0054 21.6649 31.2339 21.5464C31.4624 21.4237 31.6317 21.2607 31.7417 21.0576V19.877H31.0562C30.1379 19.877 29.6491 20.1943 29.5898 20.8291L29.5835 20.937C29.5835 21.1655 29.6639 21.3538 29.8247 21.502C29.9855 21.6501 30.2056 21.7241 30.4849 21.7241Z" fill="black"/>
</svg>
